# xmcd CD database file
#
# Track frame offsets:
#	150
#	19486
#	49330
#	60624
#	91890
#	118124
#	131895
#	166469
#	187451
#	212003
#	237264
#
# Disc length: 3397 seconds
#
# Revision: 0
# Processed by: cddbd v1.5.2PL0 Copyright (c) Steve Scherf et al.
# Submitted via: CDex 1.70beta2
#
DISCID=a90d430b
DTITLE=Various Artist - Jazz Chillout III
DYEAR=2006
DGENRE=Jazz
TTITLE0=You Go To My Head
TTITLE1=Fin De L'affaire
TTITLE2=Blue Moon
TTITLE3=Lonely Woman
TTITLE4=Just One More Chance
TTITLE5=Basin St. Blues
TTITLE6=Lazy Afternoon
TTITLE7=Summer In Central Part
TTITLE8=If Loving You Is Wrong
TTITLE9=Since I Fell For You
TTITLE10=I Was So Young
EXTD=
EXTT0=
EXTT1=
EXTT2=
EXTT3=
EXTT4=
EXTT5=
EXTT6=
EXTT7=
EXTT8=
EXTT9=
EXTT10=
PLAYORDER=
